<svg width="78" height="10" viewBox="0 0 78 10" fill="none" xmlns="http://www.w3.org/2000/svg">
<path d="M0.252 0.599999H6.492L6.612 3.096H6.396C6.1 2.232 5.756 1.644 5.364 1.332C4.98 1.02 4.404 0.864 3.636 0.864H3.3V4.764H3.84C4.224 4.764 4.544 4.624 4.8 4.344C5.056 4.064 5.232 3.68 5.328 3.192H5.508V6.744H5.304C5.176 6.144 4.996 5.716 4.764 5.46C4.54 5.204 4.232 5.076 3.84 5.076H3.3V8.736H4.788V9H0.252V8.736H0.96V0.864H0.252V0.599999ZM11.0903 8.772L10.2143 6.18H7.83825L6.91425 8.772H7.81425V9H5.97825V8.772H6.54225L9.60225 0.528H10.5863L13.6103 8.772H14.1623V9H10.2383V8.772H11.0903ZM9.07425 2.772L7.94625 5.916H10.1183L9.07425 2.772ZM18.0211 8.868C18.4211 8.868 18.7731 8.76 19.0771 8.544C19.3891 8.328 19.5451 8.004 19.5451 7.572C19.5451 7.132 19.3771 6.796 19.0411 6.564C18.7131 6.332 18.2411 6.132 17.6251 5.964C17.0171 5.788 16.5731 5.636 16.2931 5.508C16.0211 5.38 15.7611 5.212 15.5131 5.004C15.0171 4.588 14.7691 3.944 14.7691 3.072C14.7691 2.36 15.0211 1.748 15.5251 1.236C16.0371 0.724 16.7331 0.468 17.6131 0.468C18.0371 0.468 18.4771 0.532 18.9331 0.659999C19.3971 0.78 19.6851 0.84 19.7971 0.84C19.9091 0.84 20.0091 0.76 20.0971 0.599999H20.2291L20.3131 3.024H20.1211C19.7371 2.328 19.3331 1.772 18.9091 1.356C18.4931 0.931999 18.0371 0.719999 17.5411 0.719999C17.0531 0.719999 16.6731 0.835999 16.4011 1.068C16.1291 1.292 15.9931 1.596 15.9931 1.98C15.9931 2.356 16.1531 2.648 16.4731 2.856C16.8011 3.056 17.2011 3.22 17.6731 3.348C18.1451 3.476 18.4531 3.564 18.5971 3.612C18.7491 3.66 18.9331 3.728 19.1491 3.816C19.3731 3.896 19.5531 3.984 19.6891 4.08C19.8331 4.168 19.9811 4.284 20.1331 4.428C20.2931 4.564 20.4171 4.716 20.5051 4.884C20.7211 5.268 20.8291 5.724 20.8291 6.252C20.8291 7.116 20.5571 7.812 20.0131 8.34C19.4771 8.86 18.7691 9.12 17.8891 9.12C17.4331 9.12 16.9091 9.06 16.3171 8.94C15.7331 8.82 15.4091 8.76 15.3451 8.76C15.2331 8.76 15.1251 8.88 15.0211 9.12H14.8531L14.7331 6.264H14.9371C15.2891 6.96 15.7371 7.568 16.2811 8.088C16.8331 8.608 17.4131 8.868 18.0211 8.868ZM21.5684 0.599999H25.3124V0.827999H24.6164V4.548H27.0044V0.827999H26.2964V0.599999H30.0524V0.827999H29.3444V8.772H30.0524V9H26.2964V8.772H27.0044V4.86H24.6164V8.772H25.3124V9H21.5684V8.772H22.2764V0.827999H21.5684V0.599999ZM30.6047 0.599999H34.2647V0.827999H33.6047V8.772H34.2647V9H30.6047V8.772H31.2647V0.827999H30.6047V0.599999ZM40.5823 5.292V4.404C40.5823 2.94 40.5103 2.016 40.3663 1.632C40.2063 1.192 39.9783 0.92 39.6823 0.816C39.5143 0.751999 39.3103 0.719999 39.0703 0.719999C38.8303 0.719999 38.6223 0.751999 38.4463 0.816C38.2783 0.88 38.1383 0.992 38.0263 1.152C37.9143 1.312 37.8223 1.48 37.7503 1.656C37.6863 1.832 37.6343 2.08 37.5943 2.4C37.5463 2.864 37.5223 3.548 37.5223 4.452V5.316C37.5223 6.292 37.5583 6.988 37.6303 7.404C37.7103 7.812 37.8063 8.104 37.9183 8.28C38.1663 8.672 38.5503 8.868 39.0703 8.868C39.7023 8.868 40.1103 8.604 40.2943 8.076C40.4863 7.54 40.5823 6.612 40.5823 5.292ZM39.0463 9.12C37.7103 9.12 36.7103 8.76 36.0463 8.04C35.3903 7.312 35.0623 6.264 35.0623 4.896C35.0623 3.52 35.4143 2.44 36.1183 1.656C36.8303 0.864 37.8343 0.468 39.1303 0.468C40.4263 0.468 41.4023 0.844 42.0583 1.596C42.7223 2.34 43.0543 3.4 43.0543 4.776C43.0543 6.152 42.7183 7.22 42.0463 7.98C41.3823 8.74 40.3823 9.12 39.0463 9.12ZM50.6269 0.827999V9H48.9469L44.8309 1.236V8.772H45.4909V9H43.8469V8.772H44.5069V0.827999H43.8469V0.599999H47.1589L50.3029 6.624V0.827999H49.6429V0.599999H51.2869V0.827999H50.6269ZM51.8859 0.599999H55.5459V0.827999H54.8859V8.772H55.5459V9H51.8859V8.772H52.5459V0.827999H51.8859V0.599999ZM59.7516 8.868C60.1516 8.868 60.5036 8.76 60.8076 8.544C61.1196 8.328 61.2756 8.004 61.2756 7.572C61.2756 7.132 61.1076 6.796 60.7716 6.564C60.4436 6.332 59.9716 6.132 59.3556 5.964C58.7476 5.788 58.3036 5.636 58.0236 5.508C57.7516 5.38 57.4916 5.212 57.2436 5.004C56.7476 4.588 56.4996 3.944 56.4996 3.072C56.4996 2.36 56.7516 1.748 57.2556 1.236C57.7676 0.724 58.4636 0.468 59.3436 0.468C59.7676 0.468 60.2076 0.532 60.6636 0.659999C61.1276 0.78 61.4156 0.84 61.5276 0.84C61.6396 0.84 61.7396 0.76 61.8276 0.599999H61.9596L62.0436 3.024H61.8516C61.4676 2.328 61.0636 1.772 60.6396 1.356C60.2236 0.931999 59.7676 0.719999 59.2716 0.719999C58.7836 0.719999 58.4036 0.835999 58.1316 1.068C57.8596 1.292 57.7236 1.596 57.7236 1.98C57.7236 2.356 57.8836 2.648 58.2036 2.856C58.5316 3.056 58.9316 3.22 59.4036 3.348C59.8756 3.476 60.1836 3.564 60.3276 3.612C60.4796 3.66 60.6636 3.728 60.8796 3.816C61.1036 3.896 61.2836 3.984 61.4196 4.08C61.5636 4.168 61.7116 4.284 61.8636 4.428C62.0236 4.564 62.1476 4.716 62.2356 4.884C62.4516 5.268 62.5596 5.724 62.5596 6.252C62.5596 7.116 62.2876 7.812 61.7436 8.34C61.2076 8.86 60.4996 9.12 59.6196 9.12C59.1636 9.12 58.6396 9.06 58.0476 8.94C57.4636 8.82 57.1396 8.76 57.0756 8.76C56.9636 8.76 56.8556 8.88 56.7516 9.12H56.5836L56.4636 6.264H56.6676C57.0196 6.96 57.4676 7.568 58.0116 8.088C58.5636 8.608 59.1436 8.868 59.7516 8.868ZM70.1398 0.599999L70.2598 3.612H70.0318C69.6798 2.548 69.3678 1.824 69.0958 1.44C68.8238 1.048 68.4318 0.852 67.9198 0.852H67.7758V8.748H68.7958V9H64.4158V8.748H65.4358V0.852H65.2798C64.7678 0.852 64.3718 1.056 64.0918 1.464C63.8118 1.864 63.5038 2.58 63.1678 3.612H62.9398L63.0598 0.599999H70.1398ZM74.6176 8.772L73.7416 6.18H71.3656L70.4416 8.772H71.3416V9H69.5056V8.772H70.0696L73.1296 0.528H74.1136L77.1376 8.772H77.6896V9H73.7656V8.772H74.6176ZM72.6016 2.772L71.4736 5.916H73.6456L72.6016 2.772Z" fill="black"/>
</svg>
